<?xml version="1.0" encoding="UTF-8" standalone="no"?>
<!DOCTYPE svg PUBLIC "-//W3C//DTD SVG 1.1//EN"
 "http://www.w3.org/Graphics/SVG/1.1/DTD/svg11.dtd">
<!-- Generated by graphviz version 14.1.1 (20251213.1925)
 -->
<!-- Title: Ciberontologia_VSCode Pages: 1 -->
<svg width="1584pt" height="704pt"
 viewBox="0.00 0.00 1584.00 704.00" xmlns="http://www.w3.org/2000/svg" xmlns:xlink="http://www.w3.org/1999/xlink">
<g id="graph0" class="graph" transform="scale(1 1) rotate(0) translate(4 699.64)">
<title>Ciberontologia_VSCode</title>
<polygon fill="white" stroke="none" points="-4,4 -4,-699.64 1579.58,-699.64 1579.58,4 -4,4"/>
<g id="clust1" class="cluster">
<title>cluster_workspace</title>
<path fill="none" stroke="black" d="M392.58,-342.64C392.58,-342.64 889.83,-342.64 889.83,-342.64 895.83,-342.64 901.83,-348.64 901.83,-354.64 901.83,-354.64 901.83,-587.64 901.83,-587.64 901.83,-593.64 895.83,-599.64 889.83,-599.64 889.83,-599.64 392.58,-599.64 392.58,-599.64 386.58,-599.64 380.58,-593.64 380.58,-587.64 380.58,-587.64 380.58,-354.64 380.58,-354.64 380.58,-348.64 386.58,-342.64 392.58,-342.64"/>
<text xml:space="preserve" text-anchor="middle" x="641.2" y="-584.24" font-family="Times,serif" font-size="12.00">Workspace: GEOPOLIS (entes/artefactos)</text>
</g>
<g id="clust2" class="cluster">
<title>cluster_editor</title>
<path fill="none" stroke="black" d="M1116.45,-486.64C1116.45,-486.64 1555.58,-486.64 1555.58,-486.64 1561.58,-486.64 1567.58,-492.64 1567.58,-498.64 1567.58,-498.64 1567.58,-613.64 1567.58,-613.64 1567.58,-619.64 1561.58,-625.64 1555.58,-625.64 1555.58,-625.64 1116.45,-625.64 1116.45,-625.64 1110.45,-625.64 1104.45,-619.64 1104.45,-613.64 1104.45,-613.64 1104.45,-498.64 1104.45,-498.64 1104.45,-492.64 1110.45,-486.64 1116.45,-486.64"/>
<text xml:space="preserve" text-anchor="middle" x="1336.02" y="-610.24" font-family="Times,serif" font-size="12.00">Inscripción: Editor (texto&#45;código)</text>
</g>
<g id="clust3" class="cluster">
<title>cluster_terminal</title>
<path fill="none" stroke="black" d="M724.7,-134.64C724.7,-134.64 1505.7,-134.64 1505.7,-134.64 1511.7,-134.64 1517.7,-140.64 1517.7,-146.64 1517.7,-146.64 1517.7,-261.64 1517.7,-261.64 1517.7,-267.64 1511.7,-273.64 1505.7,-273.64 1505.7,-273.64 724.7,-273.64 724.7,-273.64 718.7,-273.64 712.7,-267.64 712.7,-261.64 712.7,-261.64 712.7,-146.64 712.7,-146.64 712.7,-140.64 718.7,-134.64 724.7,-134.64"/>
<text xml:space="preserve" text-anchor="middle" x="1115.2" y="-258.24" font-family="Times,serif" font-size="12.00">Ejecución: Terminal</text>
</g>
<g id="clust4" class="cluster">
<title>cluster_browser</title>
<path fill="none" stroke="black" d="M705.95,-27.64C705.95,-27.64 1214.08,-27.64 1214.08,-27.64 1220.08,-27.64 1226.08,-33.64 1226.08,-39.64 1226.08,-39.64 1226.08,-95.64 1226.08,-95.64 1226.08,-101.64 1220.08,-107.64 1214.08,-107.64 1214.08,-107.64 705.95,-107.64 705.95,-107.64 699.95,-107.64 693.95,-101.64 693.95,-95.64 693.95,-95.64 693.95,-39.64 693.95,-39.64 693.95,-33.64 699.95,-27.64 705.95,-27.64"/>
<text xml:space="preserve" text-anchor="middle" x="960.02" y="-92.24" font-family="Times,serif" font-size="12.00">Publicación: Navegador (mundo renderizado)</text>
</g>
<g id="clust5" class="cluster">
<title>cluster_ai</title>
<path fill="none" stroke="black" d="M20,-607.64C20,-607.64 843.7,-607.64 843.7,-607.64 849.7,-607.64 855.7,-613.64 855.7,-619.64 855.7,-619.64 855.7,-675.64 855.7,-675.64 855.7,-681.64 849.7,-687.64 843.7,-687.64 843.7,-687.64 20,-687.64 20,-687.64 14,-687.64 8,-681.64 8,-675.64 8,-675.64 8,-619.64 8,-619.64 8,-613.64 14,-607.64 20,-607.64"/>
<text xml:space="preserve" text-anchor="middle" x="431.85" y="-672.24" font-family="Times,serif" font-size="12.00">Observación de segundo orden: Chat/Asistente</text>
</g>
<!-- Explorer -->
<g id="node1" class="node">
<title>Explorer</title>
<path fill="none" stroke="black" d="M495.33,-510.14C495.33,-510.14 400.58,-510.14 400.58,-510.14 394.58,-510.14 388.58,-504.14 388.58,-498.14 388.58,-498.14 388.58,-481.14 388.58,-481.14 388.58,-475.14 394.58,-469.14 400.58,-469.14 400.58,-469.14 495.33,-469.14 495.33,-469.14 501.33,-469.14 507.33,-475.14 507.33,-481.14 507.33,-481.14 507.33,-498.14 507.33,-498.14 507.33,-504.14 501.33,-510.14 495.33,-510.14"/>
<text xml:space="preserve" text-anchor="middle" x="447.95" y="-492.84" font-family="Times,serif" font-size="14.00">Explorer</text>
<text xml:space="preserve" text-anchor="middle" x="447.95" y="-476.34" font-family="Times,serif" font-size="14.00">(árbol de archivos)</text>
</g>
<!-- HTML -->
<g id="node2" class="node">
<title>HTML</title>
<path fill="none" stroke="black" d="M875.08,-569.14C875.08,-569.14 658.83,-569.14 658.83,-569.14 652.83,-569.14 646.83,-563.14 646.83,-557.14 646.83,-557.14 646.83,-540.14 646.83,-540.14 646.83,-534.14 652.83,-528.14 658.83,-528.14 658.83,-528.14 875.08,-528.14 875.08,-528.14 881.08,-528.14 887.08,-534.14 887.08,-540.14 887.08,-540.14 887.08,-557.14 887.08,-557.14 887.08,-563.14 881.08,-569.14 875.08,-569.14"/>
<text xml:space="preserve" text-anchor="middle" x="766.95" y="-551.84" font-family="Times,serif" font-size="14.00">HTML pages</text>
<text xml:space="preserve" text-anchor="middle" x="766.95" y="-535.34" font-family="Times,serif" font-size="14.00">manhattan_project.html, index.html, etc.</text>
</g>
<!-- Explorer&#45;&gt;HTML -->
<g id="edge1" class="edge">
<title>Explorer&#45;&gt;HTML</title>
<path fill="none" stroke="black" d="M507.58,-506.47C513.55,-507.97 519.55,-509.39 525.33,-510.64 560.83,-518.3 599.58,-525.09 635.42,-530.74"/>
<polygon fill="black" stroke="black" points="634.52,-534.15 644.94,-532.23 635.6,-527.23 634.52,-534.15"/>
<text xml:space="preserve" text-anchor="middle" x="573.7" y="-531.05" font-family="Times,serif" font-size="14.00">selecciona/abre</text>
</g>
<!-- Py -->
<g id="node3" class="node">
<title>Py</title>
<path fill="none" stroke="black" d="M881.83,-392.14C881.83,-392.14 652.08,-392.14 652.08,-392.14 646.08,-392.14 640.08,-386.14 640.08,-380.14 640.08,-380.14 640.08,-363.14 640.08,-363.14 640.08,-357.14 646.08,-351.14 652.08,-351.14 652.08,-351.14 881.83,-351.14 881.83,-351.14 887.83,-351.14 893.83,-357.14 893.83,-363.14 893.83,-363.14 893.83,-380.14 893.83,-380.14 893.83,-386.14 887.83,-392.14 881.83,-392.14"/>
<text xml:space="preserve" text-anchor="middle" x="766.95" y="-374.84" font-family="Times,serif" font-size="14.00">Python scripts</text>
<text xml:space="preserve" text-anchor="middle" x="766.95" y="-358.34" font-family="Times,serif" font-size="14.00">process_playlist.py, get_video_metadata.py</text>
</g>
<!-- Explorer&#45;&gt;Py -->
<g id="edge2" class="edge">
<title>Explorer&#45;&gt;Py</title>
<path fill="none" stroke="black" d="M471.07,-468.83C485.52,-456.26 505.35,-440.85 525.33,-431.14 557.51,-415.49 594.17,-403.73 629,-394.98"/>
<polygon fill="black" stroke="black" points="629.39,-398.49 638.28,-392.72 627.73,-391.69 629.39,-398.49"/>
<text xml:space="preserve" text-anchor="middle" x="573.7" y="-434.34" font-family="Times,serif" font-size="14.00">selecciona/abre</text>
</g>
<!-- Assets -->
<g id="node4" class="node">
<title>Assets</title>
<path fill="none" stroke="black" d="M823.33,-451.14C823.33,-451.14 710.58,-451.14 710.58,-451.14 704.58,-451.14 698.58,-445.14 698.58,-439.14 698.58,-439.14 698.58,-422.14 698.58,-422.14 698.58,-416.14 704.58,-410.14 710.58,-410.14 710.58,-410.14 823.33,-410.14 823.33,-410.14 829.33,-410.14 835.33,-416.14 835.33,-422.14 835.33,-422.14 835.33,-439.14 835.33,-439.14 835.33,-445.14 829.33,-451.14 823.33,-451.14"/>
<text xml:space="preserve" text-anchor="middle" x="766.95" y="-433.84" font-family="Times,serif" font-size="14.00">Carpetas/recursos</text>
<text xml:space="preserve" text-anchor="middle" x="766.95" y="-417.34" font-family="Times,serif" font-size="14.00">diagrams/, wade/, etc.</text>
</g>
<!-- Explorer&#45;&gt;Assets -->
<g id="edge3" class="edge">
<title>Explorer&#45;&gt;Assets</title>
<path fill="none" stroke="black" d="M507.6,-473.24C513.57,-471.77 519.56,-470.37 525.33,-469.14 578.84,-457.71 639.7,-448 686.82,-441.19"/>
<polygon fill="black" stroke="black" points="687.29,-444.66 696.69,-439.78 686.3,-437.73 687.29,-444.66"/>
<text xml:space="preserve" text-anchor="middle" x="573.7" y="-472.34" font-family="Times,serif" font-size="14.00">navega</text>
</g>
<!-- README -->
<g id="node5" class="node">
<title>README</title>
<path fill="none" stroke="black" d="M819.2,-510.14C819.2,-510.14 714.7,-510.14 714.7,-510.14 708.7,-510.14 702.7,-504.14 702.7,-498.14 702.7,-498.14 702.7,-481.14 702.7,-481.14 702.7,-475.14 708.7,-469.14 714.7,-469.14 714.7,-469.14 819.2,-469.14 819.2,-469.14 825.2,-469.14 831.2,-475.14 831.2,-481.14 831.2,-481.14 831.2,-498.14 831.2,-498.14 831.2,-504.14 825.2,-510.14 819.2,-510.14"/>
<text xml:space="preserve" text-anchor="middle" x="766.95" y="-492.84" font-family="Times,serif" font-size="14.00">README / notas</text>
<text xml:space="preserve" text-anchor="middle" x="766.95" y="-476.34" font-family="Times,serif" font-size="14.00">(memoria operativa)</text>
</g>
<!-- Explorer&#45;&gt;README -->
<g id="edge4" class="edge">
<title>Explorer&#45;&gt;README</title>
<path fill="none" stroke="black" d="M507.47,-489.64C559.18,-489.64 634.9,-489.64 691.03,-489.64"/>
<polygon fill="black" stroke="black" points="690.83,-493.14 700.83,-489.64 690.83,-486.14 690.83,-493.14"/>
<text xml:space="preserve" text-anchor="middle" x="573.7" y="-492.84" font-family="Times,serif" font-size="14.00">consulta</text>
</g>
<!-- Editor -->
<g id="node6" class="node">
<title>Editor</title>
<path fill="none" stroke="black" d="M1192.2,-561.14C1192.2,-561.14 1124.45,-561.14 1124.45,-561.14 1118.45,-561.14 1112.45,-555.14 1112.45,-549.14 1112.45,-549.14 1112.45,-532.14 1112.45,-532.14 1112.45,-526.14 1118.45,-520.14 1124.45,-520.14 1124.45,-520.14 1192.2,-520.14 1192.2,-520.14 1198.2,-520.14 1204.2,-526.14 1204.2,-532.14 1204.2,-532.14 1204.2,-549.14 1204.2,-549.14 1204.2,-555.14 1198.2,-561.14 1192.2,-561.14"/>
<text xml:space="preserve" text-anchor="middle" x="1158.33" y="-543.84" font-family="Times,serif" font-size="14.00">Editor</text>
<text xml:space="preserve" text-anchor="middle" x="1158.33" y="-527.34" font-family="Times,serif" font-size="14.00">(HTML/CSS)</text>
</g>
<!-- HTML&#45;&gt;Editor -->
<g id="edge5" class="edge">
<title>HTML&#45;&gt;Editor</title>
<path fill="none" stroke="black" d="M887.42,-546.18C958.39,-544.73 1045.1,-542.94 1100.76,-541.8"/>
<polygon fill="black" stroke="black" points="1100.71,-545.3 1110.63,-541.6 1100.56,-538.3 1100.71,-545.3"/>
<text xml:space="preserve" text-anchor="middle" x="983.83" y="-548.79" font-family="Times,serif" font-size="14.00">se edita como texto</text>
</g>
<!-- Server -->
<g id="node11" class="node">
<title>Server</title>
<path fill="none" stroke="black" d="M1230.83,-184.14C1230.83,-184.14 1085.83,-184.14 1085.83,-184.14 1079.83,-184.14 1073.83,-178.14 1073.83,-172.14 1073.83,-172.14 1073.83,-155.14 1073.83,-155.14 1073.83,-149.14 1079.83,-143.14 1085.83,-143.14 1085.83,-143.14 1230.83,-143.14 1230.83,-143.14 1236.83,-143.14 1242.83,-149.14 1242.83,-155.14 1242.83,-155.14 1242.83,-172.14 1242.83,-172.14 1242.83,-178.14 1236.83,-184.14 1230.83,-184.14"/>
<text xml:space="preserve" text-anchor="middle" x="1158.33" y="-166.84" font-family="Times,serif" font-size="14.00">Servidor local</text>
<text xml:space="preserve" text-anchor="middle" x="1158.33" y="-150.34" font-family="Times,serif" font-size="14.00">python &#45;m http.server :8000</text>
</g>
<!-- HTML&#45;&gt;Server -->
<g id="edge18" class="edge">
<title>HTML&#45;&gt;Server</title>
<path fill="none" stroke="black" d="M887.45,-532.52C892.76,-528.9 897.61,-524.64 901.83,-519.64 918.21,-500.21 897.24,-311.95 911.83,-291.14 951.57,-234.43 1005.64,-279.35 1055.83,-231.64 1069.37,-218.76 1059.99,-206.19 1073.83,-193.64 1074.89,-192.68 1075.98,-191.75 1077.1,-190.85"/>
<polygon fill="black" stroke="black" points="1078.76,-193.95 1084.96,-185.36 1074.76,-188.21 1078.76,-193.95"/>
<text xml:space="preserve" text-anchor="middle" x="983.83" y="-294.34" font-family="Times,serif" font-size="14.00">archivo servido</text>
</g>
<!-- Terminal -->
<g id="node9" class="node">
<title>Terminal</title>
<path fill="none" stroke="black" d="M801.2,-214.14C801.2,-214.14 732.7,-214.14 732.7,-214.14 726.7,-214.14 720.7,-208.14 720.7,-202.14 720.7,-202.14 720.7,-185.14 720.7,-185.14 720.7,-179.14 726.7,-173.14 732.7,-173.14 732.7,-173.14 801.2,-173.14 801.2,-173.14 807.2,-173.14 813.2,-179.14 813.2,-185.14 813.2,-185.14 813.2,-202.14 813.2,-202.14 813.2,-208.14 807.2,-214.14 801.2,-214.14"/>
<text xml:space="preserve" text-anchor="middle" x="766.95" y="-196.84" font-family="Times,serif" font-size="14.00">Terminal</text>
<text xml:space="preserve" text-anchor="middle" x="766.95" y="-180.34" font-family="Times,serif" font-size="14.00">(zsh / Python)</text>
</g>
<!-- Py&#45;&gt;Terminal -->
<g id="edge9" class="edge">
<title>Py&#45;&gt;Terminal</title>
<path fill="none" stroke="black" d="M766.95,-350.73C766.95,-319.91 766.95,-262.04 766.95,-225.8"/>
<polygon fill="black" stroke="black" points="770.45,-225.92 766.95,-215.92 763.45,-225.92 770.45,-225.92"/>
<text xml:space="preserve" text-anchor="middle" x="755.7" y="-277.59" font-family="Times,serif" font-size="14.00">se ejecuta</text>
</g>
<!-- Editor&#45;&gt;HTML -->
<g id="edge8" class="edge">
<title>Editor&#45;&gt;HTML</title>
<path fill="none" stroke="black" d="M1112.09,-530.59C1094.61,-527.18 1074.38,-523.82 1055.83,-522.14 992.09,-516.38 975.56,-516.32 911.83,-522.14 901.41,-523.09 890.62,-524.42 879.85,-525.99"/>
<polygon fill="black" stroke="black" points="879.5,-522.5 870.14,-527.47 880.55,-529.42 879.5,-522.5"/>
<text xml:space="preserve" text-anchor="middle" x="983.83" y="-525.34" font-family="Times,serif" font-size="14.00">guarda (persistencia)</text>
</g>
<!-- CSS -->
<g id="node7" class="node">
<title>CSS</title>
<path fill="none" stroke="black" d="M1547.58,-595.14C1547.58,-595.14 1383.83,-595.14 1383.83,-595.14 1377.83,-595.14 1371.83,-589.14 1371.83,-583.14 1371.83,-583.14 1371.83,-566.14 1371.83,-566.14 1371.83,-560.14 1377.83,-554.14 1383.83,-554.14 1383.83,-554.14 1547.58,-554.14 1547.58,-554.14 1553.58,-554.14 1559.58,-560.14 1559.58,-566.14 1559.58,-566.14 1559.58,-583.14 1559.58,-583.14 1559.58,-589.14 1553.58,-595.14 1547.58,-595.14"/>
<text xml:space="preserve" text-anchor="middle" x="1465.7" y="-577.84" font-family="Times,serif" font-size="14.00">Reglas CSS</text>
<text xml:space="preserve" text-anchor="middle" x="1465.7" y="-561.34" font-family="Times,serif" font-size="14.00">:root, dark&#45;mode, componentes</text>
</g>
<!-- Editor&#45;&gt;CSS -->
<g id="edge6" class="edge">
<title>Editor&#45;&gt;CSS</title>
<path fill="none" stroke="black" d="M1204.39,-545.66C1245.28,-550.21 1307.12,-557.09 1360.27,-563.01"/>
<polygon fill="black" stroke="black" points="1359.64,-566.46 1369.97,-564.09 1360.42,-559.51 1359.64,-566.46"/>
<text xml:space="preserve" text-anchor="middle" x="1307.33" y="-564.88" font-family="Times,serif" font-size="14.00">modifica estilos</text>
</g>
<!-- Content -->
<g id="node8" class="node">
<title>Content</title>
<path fill="none" stroke="black" d="M1535.58,-536.14C1535.58,-536.14 1395.83,-536.14 1395.83,-536.14 1389.83,-536.14 1383.83,-530.14 1383.83,-524.14 1383.83,-524.14 1383.83,-507.14 1383.83,-507.14 1383.83,-501.14 1389.83,-495.14 1395.83,-495.14 1395.83,-495.14 1535.58,-495.14 1535.58,-495.14 1541.58,-495.14 1547.58,-501.14 1547.58,-507.14 1547.58,-507.14 1547.58,-524.14 1547.58,-524.14 1547.58,-530.14 1541.58,-536.14 1535.58,-536.14"/>
<text xml:space="preserve" text-anchor="middle" x="1465.7" y="-518.84" font-family="Times,serif" font-size="14.00">Secciones HTML</text>
<text xml:space="preserve" text-anchor="middle" x="1465.7" y="-502.34" font-family="Times,serif" font-size="14.00">(e.g. esquema + discusión)</text>
</g>
<!-- Editor&#45;&gt;Content -->
<g id="edge7" class="edge">
<title>Editor&#45;&gt;Content</title>
<path fill="none" stroke="black" d="M1204.53,-536.24C1222.1,-534.57 1242.4,-532.7 1260.83,-531.14 1297.37,-528.04 1337.63,-524.92 1372.64,-522.3"/>
<polygon fill="black" stroke="black" points="1372.6,-525.81 1382.31,-521.57 1372.08,-518.83 1372.6,-525.81"/>
<text xml:space="preserve" text-anchor="middle" x="1307.33" y="-534.34" font-family="Times,serif" font-size="14.00">inserta estructura</text>
</g>
<!-- ScriptRun -->
<g id="node10" class="node">
<title>ScriptRun</title>
<path fill="none" stroke="black" d="M1203.83,-243.14C1203.83,-243.14 1112.83,-243.14 1112.83,-243.14 1106.83,-243.14 1100.83,-237.14 1100.83,-231.14 1100.83,-231.14 1100.83,-214.14 1100.83,-214.14 1100.83,-208.14 1106.83,-202.14 1112.83,-202.14 1112.83,-202.14 1203.83,-202.14 1203.83,-202.14 1209.83,-202.14 1215.83,-208.14 1215.83,-214.14 1215.83,-214.14 1215.83,-231.14 1215.83,-231.14 1215.83,-237.14 1209.83,-243.14 1203.83,-243.14"/>
<text xml:space="preserve" text-anchor="middle" x="1158.33" y="-225.84" font-family="Times,serif" font-size="14.00">Ejecución scripts</text>
<text xml:space="preserve" text-anchor="middle" x="1158.33" y="-209.34" font-family="Times,serif" font-size="14.00">(parseo/curaduría)</text>
</g>
<!-- Terminal&#45;&gt;ScriptRun -->
<g id="edge10" class="edge">
<title>Terminal&#45;&gt;ScriptRun</title>
<path fill="none" stroke="black" d="M813.38,-197.02C881.36,-202.08 1010,-211.67 1089.24,-217.57"/>
<polygon fill="black" stroke="black" points="1088.82,-221.05 1099.05,-218.3 1089.34,-214.07 1088.82,-221.05"/>
<text xml:space="preserve" text-anchor="middle" x="983.83" y="-218.06" font-family="Times,serif" font-size="14.00">produce salida</text>
</g>
<!-- Terminal&#45;&gt;Server -->
<g id="edge11" class="edge">
<title>Terminal&#45;&gt;Server</title>
<path fill="none" stroke="black" d="M813.38,-190.14C873.99,-185.47 982.85,-177.08 1061.89,-170.99"/>
<polygon fill="black" stroke="black" points="1062.12,-174.48 1071.82,-170.23 1061.58,-167.51 1062.12,-174.48"/>
<text xml:space="preserve" text-anchor="middle" x="983.83" y="-185.41" font-family="Times,serif" font-size="14.00">levanta servicio</text>
</g>
<!-- ScriptRun&#45;&gt;HTML -->
<g id="edge23" class="edge">
<title>ScriptRun&#45;&gt;HTML</title>
<path fill="none" stroke="black" d="M1129.75,-243.48C1078.68,-283.59 969.34,-376.79 911.83,-480.64 903.16,-496.29 914.72,-507.23 901.83,-519.64 900.19,-521.22 898.49,-522.72 896.73,-524.14"/>
<polygon fill="black" stroke="black" points="894.87,-521.17 888.72,-529.8 898.91,-526.89 894.87,-521.17"/>
<text xml:space="preserve" text-anchor="middle" x="983.83" y="-500.34" font-family="Times,serif" font-size="14.00">alimenta/genera contenido</text>
<text xml:space="preserve" text-anchor="middle" x="983.83" y="-483.84" font-family="Times,serif" font-size="14.00">(playlist/metadatos)</text>
</g>
<!-- Logs -->
<g id="node12" class="node">
<title>Logs</title>
<path fill="none" stroke="black" d="M1497.7,-184.14C1497.7,-184.14 1433.7,-184.14 1433.7,-184.14 1427.7,-184.14 1421.7,-178.14 1421.7,-172.14 1421.7,-172.14 1421.7,-155.14 1421.7,-155.14 1421.7,-149.14 1427.7,-143.14 1433.7,-143.14 1433.7,-143.14 1497.7,-143.14 1497.7,-143.14 1503.7,-143.14 1509.7,-149.14 1509.7,-155.14 1509.7,-155.14 1509.7,-172.14 1509.7,-172.14 1509.7,-178.14 1503.7,-184.14 1497.7,-184.14"/>
<text xml:space="preserve" text-anchor="middle" x="1465.7" y="-166.84" font-family="Times,serif" font-size="14.00">Logs HTTP</text>
<text xml:space="preserve" text-anchor="middle" x="1465.7" y="-150.34" font-family="Times,serif" font-size="14.00">GET / ... 200</text>
</g>
<!-- Server&#45;&gt;Logs -->
<g id="edge12" class="edge">
<title>Server&#45;&gt;Logs</title>
<path fill="none" stroke="black" d="M1243.18,-163.64C1296.4,-163.64 1363.75,-163.64 1410.13,-163.64"/>
<polygon fill="black" stroke="black" points="1409.94,-167.14 1419.94,-163.64 1409.94,-160.14 1409.94,-167.14"/>
<text xml:space="preserve" text-anchor="middle" x="1307.33" y="-166.84" font-family="Times,serif" font-size="14.00">registra requests</text>
</g>
<!-- Browser -->
<g id="node13" class="node">
<title>Browser</title>
<path fill="none" stroke="black" d="M819.95,-77.14C819.95,-77.14 713.95,-77.14 713.95,-77.14 707.95,-77.14 701.95,-71.14 701.95,-65.14 701.95,-65.14 701.95,-48.14 701.95,-48.14 701.95,-42.14 707.95,-36.14 713.95,-36.14 713.95,-36.14 819.95,-36.14 819.95,-36.14 825.95,-36.14 831.95,-42.14 831.95,-48.14 831.95,-48.14 831.95,-65.14 831.95,-65.14 831.95,-71.14 825.95,-77.14 819.95,-77.14"/>
<text xml:space="preserve" text-anchor="middle" x="766.95" y="-59.84" font-family="Times,serif" font-size="14.00">Navegador</text>
<text xml:space="preserve" text-anchor="middle" x="766.95" y="-43.34" font-family="Times,serif" font-size="14.00">(render HTML/CSS)</text>
</g>
<!-- Server&#45;&gt;Browser -->
<g id="edge20" class="edge">
<title>Server&#45;&gt;Browser</title>
<path fill="none" stroke="black" d="M1073.57,-149.26C1025.73,-140.22 964.9,-127.3 911.83,-111.64 883.66,-103.33 853.19,-92.03 827.57,-81.83"/>
<polygon fill="black" stroke="black" points="828.89,-78.59 818.31,-78.1 826.28,-85.09 828.89,-78.59"/>
<text xml:space="preserve" text-anchor="middle" x="983.83" y="-148.03" font-family="Times,serif" font-size="14.00">HTTP 200 + contenido</text>
</g>
<!-- Browser&#45;&gt;Server -->
<g id="edge19" class="edge">
<title>Browser&#45;&gt;Server</title>
<path fill="none" stroke="black" d="M832.2,-63.17C910.83,-71.48 1036.02,-85.87 1055.83,-95.14 1065.66,-99.74 1065.19,-105.08 1073.83,-111.64 1085.42,-120.44 1098.55,-129.14 1110.9,-136.84"/>
<polygon fill="black" stroke="black" points="1108.95,-139.75 1119.31,-141.99 1112.61,-133.78 1108.95,-139.75"/>
<text xml:space="preserve" text-anchor="middle" x="983.83" y="-98.34" font-family="Times,serif" font-size="14.00">HTTP GET</text>
</g>
<!-- Render -->
<g id="node14" class="node">
<title>Render</title>
<path fill="none" stroke="black" d="M1206.08,-77.14C1206.08,-77.14 1110.58,-77.14 1110.58,-77.14 1104.58,-77.14 1098.58,-71.14 1098.58,-65.14 1098.58,-65.14 1098.58,-48.14 1098.58,-48.14 1098.58,-42.14 1104.58,-36.14 1110.58,-36.14 1110.58,-36.14 1206.08,-36.14 1206.08,-36.14 1212.08,-36.14 1218.08,-42.14 1218.08,-48.14 1218.08,-48.14 1218.08,-65.14 1218.08,-65.14 1218.08,-71.14 1212.08,-77.14 1206.08,-77.14"/>
<text xml:space="preserve" text-anchor="middle" x="1158.33" y="-59.84" font-family="Times,serif" font-size="14.00">Página renderizada</text>
<text xml:space="preserve" text-anchor="middle" x="1158.33" y="-43.34" font-family="Times,serif" font-size="14.00">(estética + lectura)</text>
</g>
<!-- Browser&#45;&gt;Render -->
<g id="edge13" class="edge">
<title>Browser&#45;&gt;Render</title>
<path fill="none" stroke="black" d="M832.41,-55.82C857.23,-55.55 885.85,-55.27 911.83,-55.14 975.83,-54.81 991.83,-54.67 1055.83,-55.14 1065.92,-55.21 1076.58,-55.33 1087.05,-55.47"/>
<polygon fill="black" stroke="black" points="1086.73,-58.96 1096.78,-55.6 1086.83,-51.96 1086.73,-58.96"/>
<text xml:space="preserve" text-anchor="middle" x="983.83" y="-58.34" font-family="Times,serif" font-size="14.00">interpreta</text>
</g>
<!-- User -->
<g id="node15" class="node">
<title>User</title>
<ellipse fill="none" stroke="black" cx="113.41" cy="-633.64" rx="97.41" ry="18"/>
<text xml:space="preserve" text-anchor="middle" x="113.41" y="-628.59" font-family="Times,serif" font-size="14.00">Tú (intención/decisión)</text>
</g>
<!-- Render&#45;&gt;User -->
<g id="edge21" class="edge">
<title>Render&#45;&gt;User</title>
<path fill="none" stroke="black" d="M1098.4,-39.22C1000.35,-13.28 798.79,27.02 640.08,-26.64 422.23,-100.3 367.17,-156.94 228.83,-340.64 165.47,-424.76 132.64,-548.42 120.3,-604.3"/>
<polygon fill="black" stroke="black" points="116.9,-603.48 118.23,-613.99 123.74,-604.94 116.9,-603.48"/>
<text xml:space="preserve" text-anchor="middle" x="573.7" y="-73.14" font-family="Times,serif" font-size="14.00">lectura/validación</text>
</g>
<!-- User&#45;&gt;Explorer -->
<g id="edge17" class="edge">
<title>User&#45;&gt;Explorer</title>
<path fill="none" stroke="black" d="M153.21,-616.84C211.03,-591.8 320.23,-544.51 387.97,-515.18"/>
<polygon fill="black" stroke="black" points="389.29,-518.42 397.08,-511.24 386.51,-512 389.29,-518.42"/>
<text xml:space="preserve" text-anchor="middle" x="299.7" y="-586.15" font-family="Times,serif" font-size="14.00">elige artefacto</text>
</g>
<!-- User&#45;&gt;Editor -->
<g id="edge22" class="edge">
<title>User&#45;&gt;Editor</title>
<path fill="none" stroke="black" d="M124.41,-615.29C154.72,-561.71 251.46,-405.06 380.58,-338.64 438.16,-309.02 460.68,-325.81 525.33,-322.14 692.55,-312.64 745.31,-279.02 901.83,-338.64 999.62,-375.89 1089.55,-464.85 1131.88,-511.29"/>
<polygon fill="black" stroke="black" points="1129.16,-513.5 1138.45,-518.59 1134.36,-508.82 1129.16,-513.5"/>
<text xml:space="preserve" text-anchor="middle" x="573.7" y="-325.34" font-family="Times,serif" font-size="14.00">ajusta/itera</text>
</g>
<!-- Chat -->
<g id="node16" class="node">
<title>Chat</title>
<path fill="none" stroke="black" d="M473.2,-657.14C473.2,-657.14 422.7,-657.14 422.7,-657.14 416.7,-657.14 410.7,-651.14 410.7,-645.14 410.7,-645.14 410.7,-628.14 410.7,-628.14 410.7,-622.14 416.7,-616.14 422.7,-616.14 422.7,-616.14 473.2,-616.14 473.2,-616.14 479.2,-616.14 485.2,-622.14 485.2,-628.14 485.2,-628.14 485.2,-645.14 485.2,-645.14 485.2,-651.14 479.2,-657.14 473.2,-657.14"/>
<text xml:space="preserve" text-anchor="middle" x="447.95" y="-639.84" font-family="Times,serif" font-size="14.00">Chat panel</text>
<text xml:space="preserve" text-anchor="middle" x="447.95" y="-623.34" font-family="Times,serif" font-size="14.00">(asistente)</text>
</g>
<!-- User&#45;&gt;Chat -->
<g id="edge14" class="edge">
<title>User&#45;&gt;Chat</title>
<path fill="none" stroke="black" d="M211.04,-634.51C272.7,-635.07 349.94,-635.76 398.88,-636.21"/>
<polygon fill="black" stroke="black" points="398.84,-639.7 408.87,-636.3 398.91,-632.71 398.84,-639.7"/>
<text xml:space="preserve" text-anchor="middle" x="299.7" y="-639.11" font-family="Times,serif" font-size="14.00">solicita/describe intención</text>
</g>
<!-- Suggest -->
<g id="node17" class="node">
<title>Suggest</title>
<path fill="none" stroke="black" d="M835.7,-657.14C835.7,-657.14 698.2,-657.14 698.2,-657.14 692.2,-657.14 686.2,-651.14 686.2,-645.14 686.2,-645.14 686.2,-628.14 686.2,-628.14 686.2,-622.14 692.2,-616.14 698.2,-616.14 698.2,-616.14 835.7,-616.14 835.7,-616.14 841.7,-616.14 847.7,-622.14 847.7,-628.14 847.7,-628.14 847.7,-645.14 847.7,-645.14 847.7,-651.14 841.7,-657.14 835.7,-657.14"/>
<text xml:space="preserve" text-anchor="middle" x="766.95" y="-639.84" font-family="Times,serif" font-size="14.00">Propuestas</text>
<text xml:space="preserve" text-anchor="middle" x="766.95" y="-623.34" font-family="Times,serif" font-size="14.00">(CSS, secciones, cambios)</text>
</g>
<!-- Chat&#45;&gt;Suggest -->
<g id="edge15" class="edge">
<title>Chat&#45;&gt;Suggest</title>
<path fill="none" stroke="black" d="M485.63,-636.64C531.52,-636.64 611.73,-636.64 674.62,-636.64"/>
<polygon fill="black" stroke="black" points="674.24,-640.14 684.24,-636.64 674.24,-633.14 674.24,-640.14"/>
<text xml:space="preserve" text-anchor="middle" x="573.7" y="-639.84" font-family="Times,serif" font-size="14.00">analiza + sugiere</text>
</g>
<!-- Suggest&#45;&gt;Editor -->
<g id="edge16" class="edge">
<title>Suggest&#45;&gt;Editor</title>
<path fill="none" stroke="black" d="M848.16,-616.86C923.61,-598.26 1034.63,-570.89 1101.08,-554.51"/>
<polygon fill="black" stroke="black" points="1101.8,-557.93 1110.68,-552.14 1100.13,-551.14 1101.8,-557.93"/>
<text xml:space="preserve" text-anchor="middle" x="983.83" y="-603.26" font-family="Times,serif" font-size="14.00">se integra en el código</text>
</g>
</g>
</svg>
