<?xml version="1.0" encoding="UTF-8" standalone="no"?>
<!DOCTYPE svg PUBLIC "-//W3C//DTD SVG 1.1//EN"
 "http://www.w3.org/Graphics/SVG/1.1/DTD/svg11.dtd">
<!-- Generated by graphviz version 14.0.5 (20251129.0259)
 -->
<!-- Title: BrujulaGeopolitica Pages: 1 -->
<svg width="977pt" height="648pt"
 viewBox="0.00 0.00 977.00 648.00" xmlns="http://www.w3.org/2000/svg" xmlns:xlink="http://www.w3.org/1999/xlink">
<g id="graph0" class="graph" transform="scale(0.784436 0.784436) rotate(0) translate(36 790.07)">
<title>BrujulaGeopolitica</title>
<polygon fill="#fafafa" stroke="none" points="-36,36 -36,-790.07 1209,-790.07 1209,36 -36,36"/>
<g id="clust1" class="cluster">
<title>cluster_clima</title>
<polygon fill="#ffe6e6" stroke="black" points="8,-291.61 8,-745.44 247,-745.44 247,-291.61 8,-291.61"/>
<text xml:space="preserve" text-anchor="middle" x="127.5" y="-729.09" font-family="Helvetica,sans-Serif" font-weight="bold" font-size="13.00">Clima &amp; Energía</text>
</g>
<g id="clust2" class="cluster">
<title>cluster_datos</title>
<polygon fill="#fff3e6" stroke="black" points="778,-576.9 778,-745.82 1136,-745.82 1136,-576.9 778,-576.9"/>
<text xml:space="preserve" text-anchor="middle" x="957" y="-729.47" font-family="Helvetica,sans-Serif" font-weight="bold" font-size="13.00">Datos, IA &amp; Sesgos</text>
</g>
<g id="clust3" class="cluster">
<title>cluster_politica</title>
<polygon fill="#f0e6ff" stroke="black" points="626,-386.44 626,-650.21 770,-650.21 770,-386.44 626,-386.44"/>
<text xml:space="preserve" text-anchor="middle" x="698" y="-633.86" font-family="Helvetica,sans-Serif" font-weight="bold" font-size="13.00">Política &amp; Migración</text>
</g>
<g id="clust4" class="cluster">
<title>cluster_economia</title>
<polygon fill="#e6f3ff" stroke="black" points="273,-8.25 273,-554.98 515,-554.98 515,-8.25 273,-8.25"/>
<text xml:space="preserve" text-anchor="middle" x="394" y="-538.63" font-family="Helvetica,sans-Serif" font-weight="bold" font-size="13.00">Economía &amp; Desarrollo</text>
</g>
<g id="clust5" class="cluster">
<title>cluster_regiones</title>
<polygon fill="#e6ffe6" stroke="black" points="282,-576.51 282,-745.44 614,-745.44 614,-576.51 282,-576.51"/>
<text xml:space="preserve" text-anchor="middle" x="448" y="-729.09" font-family="Helvetica,sans-Serif" font-weight="bold" font-size="13.00">Regiones &amp; Casos</text>
</g>
<g id="clust6" class="cluster">
<title>cluster_metodologia</title>
<polygon fill="#fff9e6" stroke="black" points="1013,-291.61 1013,-554.98 1165,-554.98 1165,-291.61 1013,-291.61"/>
<text xml:space="preserve" text-anchor="middle" x="1089" y="-538.63" font-family="Helvetica,sans-Serif" font-weight="bold" font-size="13.00">Metodología</text>
</g>
<!-- Cambio Climático -->
<g id="node1" class="node">
<title>Cambio Climático</title>
<path fill="#ff9999" stroke="black" stroke-width="2" d="M222.98,-619.42C222.98,-619.42 129.02,-619.42 129.02,-619.42 123.3,-619.42 117.58,-613.7 117.58,-607.97 117.58,-607.97 117.58,-596.52 117.58,-596.52 117.58,-590.8 123.3,-585.07 129.02,-585.07 129.02,-585.07 222.98,-585.07 222.98,-585.07 228.7,-585.07 234.43,-590.8 234.43,-596.52 234.43,-596.52 234.43,-607.97 234.43,-607.97 234.43,-613.7 228.7,-619.42 222.98,-619.42"/>
<text xml:space="preserve" text-anchor="middle" x="176" y="-597.22" font-family="Helvetica,sans-Serif" font-size="12.00">Cambio Climático</text>
</g>
<!-- Clima -->
<g id="node6" class="node">
<title>Clima</title>
<path fill="#ffb3b3" stroke="black" stroke-width="2" d="M58.55,-524.42C58.55,-524.42 27.45,-524.42 27.45,-524.42 21.73,-524.42 16,-518.7 16,-512.97 16,-512.97 16,-501.52 16,-501.52 16,-495.8 21.73,-490.07 27.45,-490.07 27.45,-490.07 58.55,-490.07 58.55,-490.07 64.27,-490.07 70,-495.8 70,-501.52 70,-501.52 70,-512.97 70,-512.97 70,-518.7 64.27,-524.42 58.55,-524.42"/>
<text xml:space="preserve" text-anchor="middle" x="43" y="-502.22" font-family="Helvetica,sans-Serif" font-size="12.00">Clima</text>
</g>
<!-- Cambio Climático&#45;&gt;Clima -->
<g id="edge2" class="edge">
<title>Cambio Climático&#45;&gt;Clima</title>
<path fill="none" stroke="#666666" d="M129.59,-584.68C88.51,-568.33 76.36,-559.16 58.85,-532.67"/>
<polygon fill="#666666" stroke="#666666" points="61.24,-531.21 54.55,-525.99 56.52,-534.24 61.24,-531.21"/>
</g>
<!-- Energías Renovables -->
<g id="node8" class="node">
<title>Energías Renovables</title>
<path fill="lightgrey" stroke="black" d="M227.35,-524.05C227.35,-524.05 124.65,-524.05 124.65,-524.05 119.05,-524.05 113.45,-518.45 113.45,-512.85 113.45,-512.85 113.45,-501.65 113.45,-501.65 113.45,-496.05 119.05,-490.45 124.65,-490.45 124.65,-490.45 227.35,-490.45 227.35,-490.45 232.95,-490.45 238.55,-496.05 238.55,-501.65 238.55,-501.65 238.55,-512.85 238.55,-512.85 238.55,-518.45 232.95,-524.05 227.35,-524.05"/>
<text xml:space="preserve" text-anchor="middle" x="176" y="-502.8" font-family="Helvetica,sans-Serif" font-size="11.00">Energías Renovables</text>
</g>
<!-- Cambio Climático&#45;&gt;Energías Renovables -->
<g id="edge3" class="edge">
<title>Cambio Climático&#45;&gt;Energías Renovables</title>
<path fill="none" stroke="#666666" d="M168.55,-584.71C161.27,-566.23 161.05,-557.33 167.9,-533.49"/>
<polygon fill="#666666" stroke="#666666" points="170.58,-534.31 170.18,-525.84 165.21,-532.71 170.58,-534.31"/>
</g>
<!-- Recursos -->
<g id="node17" class="node">
<title>Recursos</title>
<path fill="lightgrey" stroke="black" d="M337.48,-524.05C337.48,-524.05 292.52,-524.05 292.52,-524.05 286.93,-524.05 281.32,-518.45 281.32,-512.85 281.32,-512.85 281.32,-501.65 281.32,-501.65 281.32,-496.05 286.93,-490.45 292.52,-490.45 292.52,-490.45 337.48,-490.45 337.48,-490.45 343.07,-490.45 348.68,-496.05 348.68,-501.65 348.68,-501.65 348.68,-512.85 348.68,-512.85 348.68,-518.45 343.07,-524.05 337.48,-524.05"/>
<text xml:space="preserve" text-anchor="middle" x="315" y="-502.8" font-family="Helvetica,sans-Serif" font-size="11.00">Recursos</text>
</g>
<!-- Cambio Climático&#45;&gt;Recursos -->
<g id="edge21" class="edge">
<title>Cambio Climático&#45;&gt;Recursos</title>
<path fill="none" stroke="#666666" d="M198.12,-584.62C216.72,-570.17 231.71,-560.2 280.24,-529.33"/>
<polygon fill="#666666" stroke="#666666" points="281.46,-531.87 286.71,-525.21 278.45,-527.14 281.46,-531.87"/>
</g>
<!-- Desarrollo -->
<g id="node2" class="node">
<title>Desarrollo</title>
<path fill="#99ccff" stroke="black" stroke-width="2" d="M445.1,-429.42C445.1,-429.42 390.9,-429.42 390.9,-429.42 385.18,-429.42 379.45,-423.7 379.45,-417.97 379.45,-417.97 379.45,-406.52 379.45,-406.52 379.45,-400.8 385.18,-395.07 390.9,-395.07 390.9,-395.07 445.1,-395.07 445.1,-395.07 450.82,-395.07 456.55,-400.8 456.55,-406.52 456.55,-406.52 456.55,-417.97 456.55,-417.97 456.55,-423.7 450.82,-429.42 445.1,-429.42"/>
<text xml:space="preserve" text-anchor="middle" x="418" y="-407.22" font-family="Helvetica,sans-Serif" font-size="12.00">Desarrollo</text>
</g>
<!-- Inversiones -->
<g id="node18" class="node">
<title>Inversiones</title>
<path fill="lightgrey" stroke="black" d="M357.98,-334.05C357.98,-334.05 304.02,-334.05 304.02,-334.05 298.43,-334.05 292.82,-328.45 292.82,-322.85 292.82,-322.85 292.82,-311.65 292.82,-311.65 292.82,-306.05 298.43,-300.45 304.02,-300.45 304.02,-300.45 357.98,-300.45 357.98,-300.45 363.57,-300.45 369.18,-306.05 369.18,-311.65 369.18,-311.65 369.18,-322.85 369.18,-322.85 369.18,-328.45 363.57,-334.05 357.98,-334.05"/>
<text xml:space="preserve" text-anchor="middle" x="331" y="-312.8" font-family="Helvetica,sans-Serif" font-size="11.00">Inversiones</text>
</g>
<!-- Desarrollo&#45;&gt;Inversiones -->
<g id="edge14" class="edge">
<title>Desarrollo&#45;&gt;Inversiones</title>
<path fill="none" stroke="#666666" d="M388.42,-394.61C375.62,-384.92 366.51,-372.58 346.8,-341.98"/>
<polygon fill="#666666" stroke="#666666" points="349.34,-340.76 342.66,-335.54 344.62,-343.78 349.34,-340.76"/>
</g>
<!-- Ciencia de Datos -->
<g id="node3" class="node">
<title>Ciencia de Datos</title>
<path fill="#ffcc99" stroke="black" stroke-width="2" d="M1000.48,-714.42C1000.48,-714.42 909.52,-714.42 909.52,-714.42 903.8,-714.42 898.08,-708.7 898.08,-702.97 898.08,-702.97 898.08,-691.52 898.08,-691.52 898.08,-685.8 903.8,-680.07 909.52,-680.07 909.52,-680.07 1000.48,-680.07 1000.48,-680.07 1006.2,-680.07 1011.92,-685.8 1011.92,-691.52 1011.92,-691.52 1011.92,-702.97 1011.92,-702.97 1011.92,-708.7 1006.2,-714.42 1000.48,-714.42"/>
<text xml:space="preserve" text-anchor="middle" x="955" y="-692.22" font-family="Helvetica,sans-Serif" font-size="12.00">Ciencia de Datos</text>
</g>
<!-- Servidores -->
<g id="node11" class="node">
<title>Servidores</title>
<path fill="lightgrey" stroke="black" d="M848.48,-619.05C848.48,-619.05 797.52,-619.05 797.52,-619.05 791.93,-619.05 786.33,-613.45 786.33,-607.85 786.33,-607.85 786.33,-596.65 786.33,-596.65 786.33,-591.05 791.93,-585.45 797.52,-585.45 797.52,-585.45 848.48,-585.45 848.48,-585.45 854.07,-585.45 859.67,-591.05 859.67,-596.65 859.67,-596.65 859.67,-607.85 859.67,-607.85 859.67,-613.45 854.07,-619.05 848.48,-619.05"/>
<text xml:space="preserve" text-anchor="middle" x="823" y="-597.8" font-family="Helvetica,sans-Serif" font-size="11.00">Servidores</text>
</g>
<!-- Ciencia de Datos&#45;&gt;Servidores -->
<g id="edge7" class="edge">
<title>Ciencia de Datos&#45;&gt;Servidores</title>
<path fill="none" stroke="#666666" d="M927.03,-679.76C909.82,-668.54 894.48,-657.1 852.82,-625.15"/>
<polygon fill="#666666" stroke="#666666" points="854.57,-622.97 846.52,-620.32 851.17,-627.41 854.57,-622.97"/>
</g>
<!-- Identificar sesgos -->
<g id="node13" class="node">
<title>Identificar sesgos</title>
<path fill="lightgrey" stroke="black" d="M996.23,-619.05C996.23,-619.05 913.77,-619.05 913.77,-619.05 908.18,-619.05 902.58,-613.45 902.58,-607.85 902.58,-607.85 902.58,-596.65 902.58,-596.65 902.58,-591.05 908.18,-585.45 913.77,-585.45 913.77,-585.45 996.23,-585.45 996.23,-585.45 1001.82,-585.45 1007.42,-591.05 1007.42,-596.65 1007.42,-596.65 1007.42,-607.85 1007.42,-607.85 1007.42,-613.45 1001.82,-619.05 996.23,-619.05"/>
<text xml:space="preserve" text-anchor="middle" x="955" y="-597.8" font-family="Helvetica,sans-Serif" font-size="11.00">Identificar sesgos</text>
</g>
<!-- Ciencia de Datos&#45;&gt;Identificar sesgos -->
<g id="edge9" class="edge">
<title>Ciencia de Datos&#45;&gt;Identificar sesgos</title>
<path fill="none" stroke="#666666" d="M962.09,-679.78C968.06,-663.44 967.91,-654.31 961.64,-628.33"/>
<polygon fill="#666666" stroke="#666666" points="964.4,-627.84 959.76,-620.75 958.97,-629.18 964.4,-627.84"/>
</g>
<!-- Información -->
<g id="node14" class="node">
<title>Información</title>
<path fill="lightgrey" stroke="black" d="M1116.72,-619.05C1116.72,-619.05 1061.28,-619.05 1061.28,-619.05 1055.67,-619.05 1050.08,-613.45 1050.08,-607.85 1050.08,-607.85 1050.08,-596.65 1050.08,-596.65 1050.08,-591.05 1055.67,-585.45 1061.28,-585.45 1061.28,-585.45 1116.72,-585.45 1116.72,-585.45 1122.33,-585.45 1127.92,-591.05 1127.92,-596.65 1127.92,-596.65 1127.92,-607.85 1127.92,-607.85 1127.92,-613.45 1122.33,-619.05 1116.72,-619.05"/>
<text xml:space="preserve" text-anchor="middle" x="1089" y="-597.8" font-family="Helvetica,sans-Serif" font-size="11.00">Información</text>
</g>
<!-- Ciencia de Datos&#45;&gt;Información -->
<g id="edge8" class="edge">
<title>Ciencia de Datos&#45;&gt;Información</title>
<path fill="none" stroke="#666666" d="M1008.46,-679.59C1043.63,-666.61 1055.06,-656.43 1073.82,-627.02"/>
<polygon fill="#666666" stroke="#666666" points="1076.09,-628.66 1077.96,-620.4 1071.34,-625.69 1076.09,-628.66"/>
</g>
<!-- Migración -->
<g id="node4" class="node">
<title>Migración</title>
<path fill="#cc99ff" stroke="black" stroke-width="2" d="M699.6,-524.42C699.6,-524.42 648.4,-524.42 648.4,-524.42 642.68,-524.42 636.95,-518.7 636.95,-512.97 636.95,-512.97 636.95,-501.52 636.95,-501.52 636.95,-495.8 642.68,-490.07 648.4,-490.07 648.4,-490.07 699.6,-490.07 699.6,-490.07 705.32,-490.07 711.05,-495.8 711.05,-501.52 711.05,-501.52 711.05,-512.97 711.05,-512.97 711.05,-518.7 705.32,-524.42 699.6,-524.42"/>
<text xml:space="preserve" text-anchor="middle" x="674" y="-502.22" font-family="Helvetica,sans-Serif" font-size="12.00">Migración</text>
</g>
<!-- ICE -->
<g id="node16" class="node">
<title>ICE</title>
<path fill="lightgrey" stroke="black" d="M689.8,-429.05C689.8,-429.05 658.2,-429.05 658.2,-429.05 652.6,-429.05 647,-423.45 647,-417.85 647,-417.85 647,-406.65 647,-406.65 647,-401.05 652.6,-395.45 658.2,-395.45 658.2,-395.45 689.8,-395.45 689.8,-395.45 695.4,-395.45 701,-401.05 701,-406.65 701,-406.65 701,-417.85 701,-417.85 701,-423.45 695.4,-429.05 689.8,-429.05"/>
<text xml:space="preserve" text-anchor="middle" x="674" y="-407.8" font-family="Helvetica,sans-Serif" font-size="11.00">ICE</text>
</g>
<!-- Migración&#45;&gt;ICE -->
<g id="edge20" class="edge">
<title>Migración&#45;&gt;ICE</title>
<path fill="none" stroke="#666666" d="M680.7,-489.73C685.86,-474.39 685.56,-465.06 679.78,-438.06"/>
<polygon fill="#666666" stroke="#666666" points="682.59,-437.79 678.14,-430.57 677.12,-438.99 682.59,-437.79"/>
</g>
<!-- América Latina -->
<g id="node5" class="node">
<title>América Latina</title>
<path fill="#99ff99" stroke="black" stroke-width="2" d="M437.48,-619.42C437.48,-619.42 358.52,-619.42 358.52,-619.42 352.8,-619.42 347.07,-613.7 347.07,-607.97 347.07,-607.97 347.07,-596.52 347.07,-596.52 347.07,-590.8 352.8,-585.07 358.52,-585.07 358.52,-585.07 437.48,-585.07 437.48,-585.07 443.2,-585.07 448.93,-590.8 448.93,-596.52 448.93,-596.52 448.93,-607.97 448.93,-607.97 448.93,-613.7 443.2,-619.42 437.48,-619.42"/>
<text xml:space="preserve" text-anchor="middle" x="398" y="-597.22" font-family="Helvetica,sans-Serif" font-size="12.00">América Latina</text>
</g>
<!-- América Latina&#45;&gt;Migración -->
<g id="edge26" class="edge">
<title>América Latina&#45;&gt;Migración</title>
<path fill="none" stroke="#666666" d="M449.17,-605.38C517.09,-607.89 540.73,-596.51 640.4,-529.83"/>
<polygon fill="#666666" stroke="#666666" points="641.68,-532.34 646.77,-525.56 638.57,-527.68 641.68,-532.34"/>
</g>
<!-- América Latina&#45;&gt;Recursos -->
<g id="edge27" class="edge">
<title>América Latina&#45;&gt;Recursos</title>
<path fill="none" stroke="#666666" d="M365.62,-584.81C341.74,-570.82 334.48,-561.16 324.12,-533.26"/>
<polygon fill="#666666" stroke="#666666" points="326.8,-532.44 321.45,-525.87 321.53,-534.34 326.8,-532.44"/>
</g>
<!-- Antropoceno -->
<g id="node7" class="node">
<title>Antropoceno</title>
<path fill="lightgrey" stroke="black" d="M206.35,-714.05C206.35,-714.05 145.65,-714.05 145.65,-714.05 140.05,-714.05 134.45,-708.45 134.45,-702.85 134.45,-702.85 134.45,-691.65 134.45,-691.65 134.45,-686.05 140.05,-680.45 145.65,-680.45 145.65,-680.45 206.35,-680.45 206.35,-680.45 211.95,-680.45 217.55,-686.05 217.55,-691.65 217.55,-691.65 217.55,-702.85 217.55,-702.85 217.55,-708.45 211.95,-714.05 206.35,-714.05"/>
<text xml:space="preserve" text-anchor="middle" x="176" y="-692.8" font-family="Helvetica,sans-Serif" font-size="11.00">Antropoceno</text>
</g>
<!-- Antropoceno&#45;&gt;Cambio Climático -->
<g id="edge1" class="edge">
<title>Antropoceno&#45;&gt;Cambio Climático</title>
<path fill="none" stroke="#666666" d="M168.88,-680.03C162.51,-663.11 162.55,-654.09 168.98,-628.55"/>
<polygon fill="#666666" stroke="#666666" points="171.61,-629.55 170.91,-621.1 166.19,-628.14 171.61,-629.55"/>
</g>
<!-- Energías Renovables&#45;&gt;Desarrollo -->
<g id="edge4" class="edge">
<title>Energías Renovables&#45;&gt;Desarrollo</title>
<path fill="none" stroke="#666666" d="M213.12,-490.05C248.98,-473.81 274.9,-464.02 370.38,-429.46"/>
<polygon fill="#666666" stroke="#666666" points="371.22,-432.14 377.79,-426.78 369.32,-426.87 371.22,-432.14"/>
</g>
<!-- Dinamarca -->
<g id="node9" class="node">
<title>Dinamarca</title>
<path fill="lightgrey" stroke="black" d="M201.85,-429.05C201.85,-429.05 150.15,-429.05 150.15,-429.05 144.55,-429.05 138.95,-423.45 138.95,-417.85 138.95,-417.85 138.95,-406.65 138.95,-406.65 138.95,-401.05 144.55,-395.45 150.15,-395.45 150.15,-395.45 201.85,-395.45 201.85,-395.45 207.45,-395.45 213.05,-401.05 213.05,-406.65 213.05,-406.65 213.05,-417.85 213.05,-417.85 213.05,-423.45 207.45,-429.05 201.85,-429.05"/>
<text xml:space="preserve" text-anchor="middle" x="176" y="-407.8" font-family="Helvetica,sans-Serif" font-size="11.00">Dinamarca</text>
</g>
<!-- Energías Renovables&#45;&gt;Dinamarca -->
<g id="edge5" class="edge">
<title>Energías Renovables&#45;&gt;Dinamarca</title>
<path fill="none" stroke="#666666" d="M168.78,-489.97C160.46,-468.99 159.83,-460.12 166.9,-438.1"/>
<polygon fill="#666666" stroke="#666666" points="169.47,-439.26 169.37,-430.78 164.16,-437.47 169.47,-439.26"/>
</g>
<!-- 60% eólica -->
<g id="node10" class="node">
<title>60% eólica</title>
<path fill="lightgrey" stroke="black" d="M201.85,-334.05C201.85,-334.05 150.15,-334.05 150.15,-334.05 144.55,-334.05 138.95,-328.45 138.95,-322.85 138.95,-322.85 138.95,-311.65 138.95,-311.65 138.95,-306.05 144.55,-300.45 150.15,-300.45 150.15,-300.45 201.85,-300.45 201.85,-300.45 207.45,-300.45 213.05,-306.05 213.05,-311.65 213.05,-311.65 213.05,-322.85 213.05,-322.85 213.05,-328.45 207.45,-334.05 201.85,-334.05"/>
<text xml:space="preserve" text-anchor="middle" x="176" y="-312.8" font-family="Helvetica,sans-Serif" font-size="11.00">60% eólica</text>
</g>
<!-- Dinamarca&#45;&gt;60% eólica -->
<g id="edge6" class="edge">
<title>Dinamarca&#45;&gt;60% eólica</title>
<path fill="none" stroke="#666666" d="M169.28,-394.99C160.48,-371.6 159.4,-362.46 166.03,-342.98"/>
<polygon fill="#666666" stroke="#666666" points="168.58,-344.17 168.69,-335.7 163.32,-342.25 168.58,-344.17"/>
</g>
<!-- LLMs -->
<g id="node12" class="node">
<title>LLMs</title>
<path fill="lightgrey" stroke="black" d="M1100.8,-714.05C1100.8,-714.05 1069.2,-714.05 1069.2,-714.05 1063.6,-714.05 1058,-708.45 1058,-702.85 1058,-702.85 1058,-691.65 1058,-691.65 1058,-686.05 1063.6,-680.45 1069.2,-680.45 1069.2,-680.45 1100.8,-680.45 1100.8,-680.45 1106.4,-680.45 1112,-686.05 1112,-691.65 1112,-691.65 1112,-702.85 1112,-702.85 1112,-708.45 1106.4,-714.05 1100.8,-714.05"/>
<text xml:space="preserve" text-anchor="middle" x="1085" y="-692.8" font-family="Helvetica,sans-Serif" font-size="11.00">LLMs</text>
</g>
<!-- LLMs&#45;&gt;Identificar sesgos -->
<g id="edge10" class="edge">
<title>LLMs&#45;&gt;Identificar sesgos</title>
<path fill="none" stroke="#666666" d="M1063.65,-680.19C1046.18,-666.45 1032.1,-656.33 987.39,-624.95"/>
<polygon fill="#666666" stroke="#666666" points="989.03,-622.68 980.87,-620.38 985.81,-627.27 989.03,-622.68"/>
</g>
<!-- LLMs&#45;&gt;Información -->
<g id="edge11" class="edge">
<title>LLMs&#45;&gt;Información</title>
<path fill="none" stroke="#666666" d="M1093.15,-680.04C1100.98,-662.25 1101.46,-653.32 1095.62,-628.45"/>
<polygon fill="#666666" stroke="#666666" points="1098.38,-627.94 1093.76,-620.83 1092.94,-629.27 1098.38,-627.94"/>
</g>
<!-- Seguimiento de noticias -->
<g id="node26" class="node">
<title>Seguimiento de noticias</title>
<path fill="lightgrey" stroke="black" d="M1145.6,-524.05C1145.6,-524.05 1032.4,-524.05 1032.4,-524.05 1026.8,-524.05 1021.2,-518.45 1021.2,-512.85 1021.2,-512.85 1021.2,-501.65 1021.2,-501.65 1021.2,-496.05 1026.8,-490.45 1032.4,-490.45 1032.4,-490.45 1145.6,-490.45 1145.6,-490.45 1151.2,-490.45 1156.8,-496.05 1156.8,-501.65 1156.8,-501.65 1156.8,-512.85 1156.8,-512.85 1156.8,-518.45 1151.2,-524.05 1145.6,-524.05"/>
<text xml:space="preserve" text-anchor="middle" x="1089" y="-502.8" font-family="Helvetica,sans-Serif" font-size="11.00">Seguimiento de noticias</text>
</g>
<!-- Información&#45;&gt;Seguimiento de noticias -->
<g id="edge23" class="edge">
<title>Información&#45;&gt;Seguimiento de noticias</title>
<path fill="none" stroke="#666666" d="M1096.23,-585.25C1104.09,-565.61 1104.48,-556.79 1097.41,-533.22"/>
<polygon fill="#666666" stroke="#666666" points="1100.11,-532.47 1095.05,-525.67 1094.76,-534.14 1100.11,-532.47"/>
</g>
<!-- Trump -->
<g id="node15" class="node">
<title>Trump</title>
<path fill="lightgrey" stroke="black" d="M689.8,-619.05C689.8,-619.05 658.2,-619.05 658.2,-619.05 652.6,-619.05 647,-613.45 647,-607.85 647,-607.85 647,-596.65 647,-596.65 647,-591.05 652.6,-585.45 658.2,-585.45 658.2,-585.45 689.8,-585.45 689.8,-585.45 695.4,-585.45 701,-591.05 701,-596.65 701,-596.65 701,-607.85 701,-607.85 701,-613.45 695.4,-619.05 689.8,-619.05"/>
<text xml:space="preserve" text-anchor="middle" x="674" y="-597.8" font-family="Helvetica,sans-Serif" font-size="11.00">Trump</text>
</g>
<!-- Trump&#45;&gt;Migración -->
<g id="edge19" class="edge">
<title>Trump&#45;&gt;Migración</title>
<path fill="none" stroke="#666666" d="M678.41,-585.13C681.21,-571.99 680.89,-562.17 677.43,-534.06"/>
<polygon fill="#666666" stroke="#666666" points="680.22,-533.81 676.45,-526.23 674.67,-534.51 680.22,-533.81"/>
</g>
<!-- Recursos&#45;&gt;Desarrollo -->
<g id="edge12" class="edge">
<title>Recursos&#45;&gt;Desarrollo</title>
<path fill="none" stroke="#666666" d="M326.77,-490.05C339.75,-471.98 349.74,-463 387.05,-435.16"/>
<polygon fill="#666666" stroke="#666666" points="388.38,-437.66 393.12,-430.64 385.03,-433.17 388.38,-437.66"/>
</g>
<!-- Recursos&#45;&gt;Inversiones -->
<g id="edge22" class="edge">
<title>Recursos&#45;&gt;Inversiones</title>
<path fill="none" stroke="#666666" d="M309.31,-490C287.79,-424.09 288.02,-412.38 319.47,-342.57"/>
<polygon fill="#666666" stroke="#666666" points="321.87,-344.05 322.62,-335.61 316.77,-341.74 321.87,-344.05"/>
</g>
<!-- Empresas -->
<g id="node19" class="node">
<title>Empresas</title>
<path fill="lightgrey" stroke="black" d="M354.98,-239.05C354.98,-239.05 307.02,-239.05 307.02,-239.05 301.42,-239.05 295.82,-233.45 295.82,-227.85 295.82,-227.85 295.82,-216.65 295.82,-216.65 295.82,-211.05 301.42,-205.45 307.02,-205.45 307.02,-205.45 354.98,-205.45 354.98,-205.45 360.58,-205.45 366.18,-211.05 366.18,-216.65 366.18,-216.65 366.18,-227.85 366.18,-227.85 366.18,-233.45 360.58,-239.05 354.98,-239.05"/>
<text xml:space="preserve" text-anchor="middle" x="331" y="-217.8" font-family="Helvetica,sans-Serif" font-size="11.00">Empresas</text>
</g>
<!-- Inversiones&#45;&gt;Empresas -->
<g id="edge15" class="edge">
<title>Inversiones&#45;&gt;Empresas</title>
<path fill="none" stroke="#666666" d="M326.11,-300.1C322.88,-286.6 323.24,-276.84 327.18,-248.57"/>
<polygon fill="#666666" stroke="#666666" points="329.95,-248.99 328.31,-240.68 324.41,-248.2 329.95,-248.99"/>
</g>
<!-- Emprendimiento -->
<g id="node20" class="node">
<title>Emprendimiento</title>
<path fill="lightgrey" stroke="black" d="M369.98,-145.05C369.98,-145.05 292.02,-145.05 292.02,-145.05 286.42,-145.05 280.82,-139.45 280.82,-133.85 280.82,-133.85 280.82,-122.65 280.82,-122.65 280.82,-117.05 286.43,-111.45 292.02,-111.45 292.02,-111.45 369.98,-111.45 369.98,-111.45 375.58,-111.45 381.18,-117.05 381.18,-122.65 381.18,-122.65 381.18,-133.85 381.18,-133.85 381.18,-139.45 375.57,-145.05 369.98,-145.05"/>
<text xml:space="preserve" text-anchor="middle" x="331" y="-123.8" font-family="Helvetica,sans-Serif" font-size="11.00">Emprendimiento</text>
</g>
<!-- Empresas&#45;&gt;Emprendimiento -->
<g id="edge16" class="edge">
<title>Empresas&#45;&gt;Emprendimiento</title>
<path fill="none" stroke="#666666" d="M328.52,-205.1C324.62,-177.83 323.29,-165.6 324.53,-154.6"/>
<polygon fill="#666666" stroke="#666666" points="327.27,-155.2 325.91,-146.83 321.75,-154.22 327.27,-155.2"/>
</g>
<!-- Innovación -->
<g id="node21" class="node">
<title>Innovación</title>
<path fill="lightgrey" stroke="black" d="M403.48,-51.05C403.48,-51.05 352.52,-51.05 352.52,-51.05 346.93,-51.05 341.32,-45.45 341.32,-39.85 341.32,-39.85 341.32,-28.65 341.32,-28.65 341.32,-23.05 346.93,-17.45 352.52,-17.45 352.52,-17.45 403.48,-17.45 403.48,-17.45 409.07,-17.45 414.68,-23.05 414.68,-28.65 414.68,-28.65 414.68,-39.85 414.68,-39.85 414.68,-45.45 409.07,-51.05 403.48,-51.05"/>
<text xml:space="preserve" text-anchor="middle" x="378" y="-29.8" font-family="Helvetica,sans-Serif" font-size="11.00">Innovación</text>
</g>
<!-- Emprendimiento&#45;&gt;Innovación -->
<g id="edge17" class="edge">
<title>Emprendimiento&#45;&gt;Innovación</title>
<path fill="none" stroke="#666666" d="M336.79,-111.17C346.46,-82.79 351.38,-69.49 357.56,-59.24"/>
<polygon fill="#666666" stroke="#666666" points="359.83,-60.87 362.05,-52.69 355.22,-57.71 359.83,-60.87"/>
</g>
<!-- Innovación&#45;&gt;Desarrollo -->
<g id="edge18" class="edge">
<title>Innovación&#45;&gt;Desarrollo</title>
<path fill="none" stroke="#666666" d="M423.23,-394.66C471.47,-232.07 471.09,-218.86 390.85,-59.68"/>
<polygon fill="#666666" stroke="#666666" points="393.51,-58.73 387.4,-52.85 388.51,-61.25 393.51,-58.73"/>
</g>
<!-- Incentivos estatales -->
<g id="node22" class="node">
<title>Incentivos estatales</title>
<path fill="lightgrey" stroke="black" d="M495.48,-524.05C495.48,-524.05 402.52,-524.05 402.52,-524.05 396.93,-524.05 391.32,-518.45 391.32,-512.85 391.32,-512.85 391.32,-501.65 391.32,-501.65 391.32,-496.05 396.93,-490.45 402.52,-490.45 402.52,-490.45 495.48,-490.45 495.48,-490.45 501.07,-490.45 506.68,-496.05 506.68,-501.65 506.68,-501.65 506.68,-512.85 506.68,-512.85 506.68,-518.45 501.07,-524.05 495.48,-524.05"/>
<text xml:space="preserve" text-anchor="middle" x="449" y="-502.8" font-family="Helvetica,sans-Serif" font-size="11.00">Incentivos estatales</text>
</g>
<!-- Incentivos estatales&#45;&gt;Desarrollo -->
<g id="edge13" class="edge">
<title>Incentivos estatales&#45;&gt;Desarrollo</title>
<path fill="none" stroke="#666666" d="M434.45,-490.22C420.25,-472.75 417.15,-463.83 417.25,-439.29"/>
<polygon fill="#666666" stroke="#666666" points="420.05,-439.48 417.38,-431.43 414.45,-439.39 420.05,-439.48"/>
</g>
<!-- Sur de México -->
<g id="node23" class="node">
<title>Sur de México</title>
<path fill="lightgrey" stroke="black" d="M369.1,-714.05C369.1,-714.05 300.9,-714.05 300.9,-714.05 295.3,-714.05 289.7,-708.45 289.7,-702.85 289.7,-702.85 289.7,-691.65 289.7,-691.65 289.7,-686.05 295.3,-680.45 300.9,-680.45 300.9,-680.45 369.1,-680.45 369.1,-680.45 374.7,-680.45 380.3,-686.05 380.3,-691.65 380.3,-691.65 380.3,-702.85 380.3,-702.85 380.3,-708.45 374.7,-714.05 369.1,-714.05"/>
<text xml:space="preserve" text-anchor="middle" x="335" y="-692.8" font-family="Helvetica,sans-Serif" font-size="11.00">Sur de México</text>
</g>
<!-- Sur de México&#45;&gt;América Latina -->
<g id="edge28" class="edge">
<title>Sur de México&#45;&gt;América Latina</title>
<path fill="none" stroke="#666666" d="M345.06,-680.01C352.84,-667.03 359.69,-656.9 380.45,-627.27"/>
<polygon fill="#666666" stroke="#666666" points="382.54,-629.15 384.84,-620.99 377.96,-625.93 382.54,-629.15"/>
</g>
<!-- Venezuela -->
<g id="node24" class="node">
<title>Venezuela</title>
<path fill="lightgrey" stroke="black" d="M483.73,-714.05C483.73,-714.05 434.27,-714.05 434.27,-714.05 428.67,-714.05 423.07,-708.45 423.07,-702.85 423.07,-702.85 423.07,-691.65 423.07,-691.65 423.07,-686.05 428.67,-680.45 434.27,-680.45 434.27,-680.45 483.73,-680.45 483.73,-680.45 489.33,-680.45 494.93,-686.05 494.93,-691.65 494.93,-691.65 494.93,-702.85 494.93,-702.85 494.93,-708.45 489.33,-714.05 483.73,-714.05"/>
<text xml:space="preserve" text-anchor="middle" x="459" y="-692.8" font-family="Helvetica,sans-Serif" font-size="11.00">Venezuela</text>
</g>
<!-- Venezuela&#45;&gt;América Latina -->
<g id="edge29" class="edge">
<title>Venezuela&#45;&gt;América Latina</title>
<path fill="none" stroke="#666666" d="M434.52,-680.04C419.82,-668.19 414.52,-657.84 405.78,-629"/>
<polygon fill="#666666" stroke="#666666" points="408.47,-628.22 403.51,-621.35 403.1,-629.82 408.47,-628.22"/>
</g>
<!-- Inglaterra -->
<g id="node25" class="node">
<title>Inglaterra</title>
<path fill="lightgrey" stroke="black" d="M594.48,-714.05C594.48,-714.05 549.52,-714.05 549.52,-714.05 543.93,-714.05 538.33,-708.45 538.33,-702.85 538.33,-702.85 538.33,-691.65 538.33,-691.65 538.33,-686.05 543.93,-680.45 549.52,-680.45 549.52,-680.45 594.48,-680.45 594.48,-680.45 600.07,-680.45 605.67,-686.05 605.67,-691.65 605.67,-691.65 605.67,-702.85 605.67,-702.85 605.67,-708.45 600.07,-714.05 594.48,-714.05"/>
<text xml:space="preserve" text-anchor="middle" x="572" y="-692.8" font-family="Helvetica,sans-Serif" font-size="11.00">Inglaterra</text>
</g>
<!-- Inglaterra&#45;&gt;Desarrollo -->
<g id="edge30" class="edge">
<title>Inglaterra&#45;&gt;Desarrollo</title>
<path fill="none" stroke="#999999" stroke-dasharray="5,2" d="M550.49,-680.07C469.42,-614.79 462.45,-599.39 424.38,-439.17"/>
<polygon fill="#999999" stroke="#999999" points="427.11,-438.53 422.53,-431.4 421.66,-439.83 427.11,-438.53"/>
</g>
<!-- Policy memo -->
<g id="node27" class="node">
<title>Policy memo</title>
<path fill="lightgrey" stroke="black" d="M1119.35,-429.05C1119.35,-429.05 1058.65,-429.05 1058.65,-429.05 1053.05,-429.05 1047.45,-423.45 1047.45,-417.85 1047.45,-417.85 1047.45,-406.65 1047.45,-406.65 1047.45,-401.05 1053.05,-395.45 1058.65,-395.45 1058.65,-395.45 1119.35,-395.45 1119.35,-395.45 1124.95,-395.45 1130.55,-401.05 1130.55,-406.65 1130.55,-406.65 1130.55,-417.85 1130.55,-417.85 1130.55,-423.45 1124.95,-429.05 1119.35,-429.05"/>
<text xml:space="preserve" text-anchor="middle" x="1089" y="-407.8" font-family="Helvetica,sans-Serif" font-size="11.00">Policy memo</text>
</g>
<!-- Seguimiento de noticias&#45;&gt;Policy memo -->
<g id="edge24" class="edge">
<title>Seguimiento de noticias&#45;&gt;Policy memo</title>
<path fill="none" stroke="#666666" d="M1096.11,-490.1C1104.59,-468.67 1105.31,-459.78 1098.28,-438.16"/>
<polygon fill="#666666" stroke="#666666" points="1100.95,-437.29 1095.7,-430.63 1095.65,-439.11 1100.95,-437.29"/>
</g>
<!-- Argumentación -->
<g id="node28" class="node">
<title>Argumentación</title>
<path fill="lightgrey" stroke="black" d="M1124.97,-334.05C1124.97,-334.05 1053.03,-334.05 1053.03,-334.05 1047.42,-334.05 1041.83,-328.45 1041.83,-322.85 1041.83,-322.85 1041.83,-311.65 1041.83,-311.65 1041.83,-306.05 1047.42,-300.45 1053.03,-300.45 1053.03,-300.45 1124.97,-300.45 1124.97,-300.45 1130.58,-300.45 1136.17,-306.05 1136.17,-311.65 1136.17,-311.65 1136.17,-322.85 1136.17,-322.85 1136.17,-328.45 1130.58,-334.05 1124.97,-334.05"/>
<text xml:space="preserve" text-anchor="middle" x="1089" y="-312.8" font-family="Helvetica,sans-Serif" font-size="11.00">Argumentación</text>
</g>
<!-- Policy memo&#45;&gt;Argumentación -->
<g id="edge25" class="edge">
<title>Policy memo&#45;&gt;Argumentación</title>
<path fill="none" stroke="#666666" d="M1095.73,-395.02C1104.52,-371.68 1105.6,-362.55 1098.97,-343.03"/>
<polygon fill="#666666" stroke="#666666" points="1101.68,-342.29 1096.31,-335.73 1096.42,-344.21 1101.68,-342.29"/>
</g>
</g>
</svg>
